<?xml version="1.0" encoding="UTF-8"?>
<svg id="Capa_2" data-name="Capa 2" xmlns="http://www.w3.org/2000/svg" viewBox="0 0 196.38 246.76">
  <defs>
    <style>
      .cls-1 {
        fill: #ed1c24;
      }
    </style>
  </defs>
  <g id="Layer_1" data-name="Layer 1">
    <path class="cls-1" d="M193.86,58.62c3.64,12.94,3.34,26.42-.89,40.46-4.23,14.05-12.81,27.63-25.75,40.74l-19.87,20.13,26.53,26.19c13.46,13.72,13.6,35.67.32,49.56l-.87.88c-13.86,13.58-36.11,13.6-50-.1L9.52,124.16c-12.57-12.41-12.71-32.68-.29-45.26L56.73,30.78C76.31,10.95,96.36.71,116.88.04c20.52-.66,39.26,7.36,56.17,24.06,10.22,10.09,17.15,21.6,20.81,34.52ZM148.34,123.93c9.64-9.68,15.64-23.03,15.64-37.76,0-29.5-23.94-53.44-53.44-53.44s-53.4,23.94-53.4,53.44c0,15.17,6.34,28.89,16.52,38.6l-.03.07c7.11,7.12,12.23,16.22,14.42,26.4h13.46v-52.34h-18.88c-2.79,0-5.05-2.26-5.05-5.05v-7.98c0-2.79,2.26-5.06,5.05-5.06h18.88v-18.88c0-2.79,2.27-5.06,5.06-5.06h7.98c2.79,0,5.06,2.27,5.06,5.06v18.88h18.87c2.79,0,5.06,2.27,5.06,5.06v7.98c0,2.79-2.27,5.05-5.06,5.05h-18.87v52.34h13.42c2.29-10.62,7.76-20.06,15.34-27.28l-.03-.03ZM139.77,159.96c0-2.42-1.96-4.38-4.38-4.38h-49.66c-2.42,0-4.39,1.96-4.39,4.38s1.97,4.39,4.39,4.39h49.66c2.42,0,4.38-1.97,4.38-4.39ZM136.4,173.07c0-2.42-1.96-4.39-4.38-4.39h-42.91c-2.43,0-4.39,1.97-4.39,4.39s1.96,4.39,4.39,4.39h42.91c2.42,0,4.38-1.97,4.38-4.39ZM133.02,186.18c0-2.42-1.96-4.39-4.38-4.39h-36.16c-2.42,0-4.39,1.97-4.39,4.39s1.97,4.38,4.39,4.38h36.16c2.42,0,4.38-1.96,4.38-4.38ZM126.27,199.29c0-2.42-1.96-4.39-4.38-4.39h-22.66c-2.42,0-4.39,1.97-4.39,4.39s1.97,4.38,4.39,4.38h22.66c2.42,0,4.38-1.96,4.38-4.38Z"/>
  </g>
</svg>